<?xml version="1.0" standalone="no"?>
<!DOCTYPE svg PUBLIC "-//W3C//DTD SVG 20010904//EN"
 "http://www.w3.org/TR/2001/REC-SVG-20010904/DTD/svg10.dtd">
<svg version="1.0" xmlns="http://www.w3.org/2000/svg"
 width="512.000000pt" height="512.000000pt" viewBox="0 0 512.000000 512.000000"
 preserveAspectRatio="xMidYMid meet">
<metadata>
Created by potrace 1.14, written by Peter Selinger 2001-2017
</metadata>
<g transform="translate(0.000000,512.000000) scale(0.100000,-0.100000)"
fill="#000000" stroke="none">
<path d="M2379 5116 c-2 -2 -35 -6 -74 -10 -38 -3 -81 -8 -95 -10 -14 -3 -41
-7 -60 -10 -19 -3 -60 -12 -90 -21 -30 -8 -66 -17 -80 -20 -14 -3 -77 -24
-140 -47 -63 -23 -126 -46 -140 -51 -14 -5 -63 -28 -110 -52 -47 -24 -87 -43
-90 -44 -3 0 -27 -15 -55 -33 -27 -18 -52 -33 -55 -33 -3 0 -27 -16 -55 -35
-27 -19 -52 -35 -55 -35 -3 0 -18 -11 -33 -25 -15 -14 -30 -25 -33 -25 -4 0
-20 -13 -37 -28 -17 -15 -53 -46 -80 -69 -28 -22 -63 -56 -79 -75 -16 -19 -31
-35 -34 -35 -3 0 -17 -16 -31 -35 -14 -19 -28 -35 -31 -35 -3 0 -19 -21 -36
-47 -16 -27 -33 -50 -37 -53 -4 -3 -21 -30 -39 -60 -17 -30 -35 -59 -40 -65
-4 -5 -18 -32 -30 -60 -12 -27 -26 -54 -30 -60 -5 -5 -9 -15 -9 -22 0 -8 -7
-25 -15 -38 -8 -13 -12 -26 -9 -29 3 -3 1 -6 -5 -6 -6 0 -13 -15 -17 -32 -3
-18 -10 -40 -15 -48 -5 -8 -14 -33 -19 -55 -6 -22 -13 -47 -16 -55 -3 -8 -7
-19 -8 -25 -2 -5 -8 -30 -15 -55 -7 -25 -14 -52 -16 -60 -1 -8 -5 -31 -9 -50
-3 -19 -8 -46 -11 -60 -2 -14 -7 -50 -10 -80 -3 -30 -8 -68 -10 -85 -5 -36 -5
-316 0 -365 2 -19 7 -60 10 -90 4 -30 8 -66 11 -80 2 -14 6 -41 9 -60 3 -19 8
-46 11 -60 3 -14 8 -36 10 -50 3 -14 12 -50 21 -80 8 -30 17 -62 19 -70 2 -8
4 -16 5 -17 2 -2 3 -6 5 -10 1 -5 5 -17 10 -28 4 -11 8 -24 9 -30 1 -5 9 -28
18 -50 9 -22 17 -42 17 -45 1 -3 4 -12 8 -20 4 -8 16 -37 27 -65 11 -27 24
-54 29 -60 5 -5 9 -15 9 -22 0 -8 5 -18 10 -23 6 -6 13 -18 16 -28 3 -9 10
-22 15 -28 5 -6 21 -31 35 -54 14 -24 30 -48 35 -54 6 -6 15 -20 21 -31 6 -11
15 -23 20 -27 5 -4 24 -27 42 -52 18 -25 36 -46 41 -46 4 0 15 -13 25 -30 10
-16 22 -30 27 -30 5 0 16 -11 25 -25 9 -14 23 -25 31 -25 8 0 18 -9 21 -20 3
-11 12 -20 19 -20 8 0 20 -9 27 -20 7 -11 19 -20 26 -20 8 0 14 -4 14 -9 0 -5
9 -13 20 -16 11 -3 26 -12 33 -19 7 -7 29 -21 49 -31 20 -10 40 -22 45 -26 4
-5 8 -6 8 -2 0 4 7 0 15 -9 8 -8 15 -18 15 -22 0 -4 9 -8 19 -8 11 0 21 -3 23
-7 4 -10 161 -93 178 -93 3 0 19 -7 35 -15 17 -8 37 -15 45 -15 8 0 31 -9 50
-20 19 -11 42 -20 50 -20 8 0 31 -7 50 -15 19 -8 44 -15 55 -15 11 0 27 -5 35
-10 8 -5 26 -11 40 -14 14 -2 41 -9 60 -14 19 -6 51 -13 70 -16 19 -3 46 -8
60 -11 14 -3 45 -8 70 -11 25 -3 56 -7 70 -10 32 -6 334 -6 380 0 19 2 58 7
85 10 28 3 61 8 75 10 14 3 39 7 55 10 17 3 44 8 60 11 17 3 39 8 50 10 11 2
31 7 45 10 14 3 36 8 50 11 14 3 34 9 45 14 11 5 29 10 40 10 11 0 29 4 40 9
11 5 45 18 75 29 30 11 62 24 70 29 8 5 22 12 30 15 8 4 29 14 45 23 17 9 32
17 35 18 3 0 12 5 20 10 8 5 35 21 60 36 25 15 47 31 50 34 3 4 21 17 40 30
19 13 37 27 40 30 3 3 30 28 60 55 30 28 57 52 60 55 3 3 25 27 50 55 25 27
47 52 50 55 3 3 17 21 30 40 13 19 27 37 30 40 3 3 17 23 30 45 13 22 27 42
30 45 3 3 12 16 19 30 7 14 17 32 22 40 5 8 23 44 40 80 17 36 35 72 40 80 5
8 13 29 19 45 5 17 14 41 20 55 5 14 11 30 13 35 1 6 10 33 19 60 9 28 18 59
21 70 2 11 9 40 15 65 6 25 13 56 16 70 2 14 7 41 10 60 3 19 8 51 10 70 6 42
13 140 20 255 3 47 1 103 -3 125 -5 22 -11 65 -14 95 -3 30 -8 66 -10 80 -3
14 -7 39 -10 55 -3 17 -9 44 -14 60 -5 17 -12 44 -15 60 -3 17 -10 41 -15 55
-5 14 -11 34 -14 45 -2 11 -13 45 -24 75 -11 30 -21 60 -23 65 -2 6 -6 17 -9
25 -3 8 -20 47 -37 85 -17 39 -35 77 -40 85 -5 8 -18 33 -29 55 -11 22 -23 42
-26 45 -3 3 -16 23 -29 45 -13 22 -26 42 -29 45 -3 3 -18 23 -33 45 -15 22
-31 42 -35 45 -3 3 -21 25 -40 50 -19 25 -37 47 -40 50 -3 3 -27 30 -55 60
-27 30 -52 57 -55 60 -3 3 -25 21 -50 40 -25 19 -47 37 -50 40 -3 3 -18 14
-35 25 -16 11 -32 22 -35 25 -3 3 -18 14 -35 25 -16 11 -32 22 -35 25 -3 3
-16 11 -30 19 -14 7 -27 16 -30 19 -3 4 -21 15 -40 26 -19 10 -37 21 -40 24
-3 3 -12 9 -20 13 -8 4 -28 14 -45 23 -16 9 -37 19 -45 23 -8 3 -19 8 -25 12
-5 4 -30 15 -55 25 -25 10 -49 21 -55 25 -5 4 -17 8 -25 8 -8 0 -20 4 -25 9
-9 8 -112 46 -145 53 -8 2 -16 4 -17 5 -2 2 -6 3 -10 4 -5 1 -11 3 -15 5 -9 3
-28 7 -85 19 -27 5 -63 12 -80 15 -16 3 -43 8 -60 10 -16 3 -52 8 -80 11 -54
6 -326 15 -331 10z"/>
</g>
</svg>
